# xmcd CD database file
#
# Track frame offsets:
#	150
#	23850
#	57824
#	80295
#	96790
#	128819
#	157545
#	183374
#	204784
#	232387
#	257666
#	288787
#	316317
#
# Disc length: 4559 seconds
#
# Revision: 0
# Processed by: cddbd v1.5.1PL0 Copyright (c) Steve Scherf et al.
# Submitted via: CDex 1.50
#
DISCID=9e11cd0d
DTITLE=Los Jubilados - Oyeme cachita
DYEAR=2000
DGENRE=Salsa
TTITLE0=La ruñidera
TTITLE1=Camagüey
TTITLE2=Camaroncito seco
TTITLE3=La virgen de guadalupe
TTITLE4=Suavecito
TTITLE5=Quimbombo
TTITLE6=El panquelero
TTITLE7=Rompe saragüey
TTITLE8=Murmullo
TTITLE9=Busco a otra
TTITLE10=Quien sera
TTITLE11=Alto songo
TTITLE12=Cachita
EXTD=YEAR: 2000
EXTT0=
EXTT1=
EXTT2=
EXTT3=
EXTT4=
EXTT5=
EXTT6=
EXTT7=
EXTT8=
EXTT9=
EXTT10=
EXTT11=
EXTT12=
PLAYORDER=
